<?xml version="1.0" encoding="utf-8"?>
<!-- Generator: Adobe Illustrator 22.0.0, SVG Export Plug-In . SVG Version: 6.00 Build 0)  -->
<svg version="1.1" id="Camada_1" xmlns="http://www.w3.org/2000/svg" xmlns:xlink="http://www.w3.org/1999/xlink" x="0px" y="0px"
	 viewBox="0 0 450 300" style="enable-background:new 0 0 450 300;" xml:space="preserve">
<style type="text/css">
	.st0{fill:#1E495F;}
</style>
<g>
	<path class="st0" d="M71.8,40.9c20.9,0,32.1,11.4,32.1,32.2v10.2c0,21-11.4,32.2-32.1,32.2h-8.6v53H43.9V40.9H71.8z M63.2,97.8h7.8
		c9.3,0,13.5-4.9,13.5-15.7v-7.7c0-10.8-4.1-15.7-13.5-15.7h-7.8V97.8z"/>
	<path class="st0" d="M179.5,71.3v66.9c0,20.1-11.8,32.2-31.2,32.2s-31.2-12.3-31.2-32.2V71.3c0-20.1,11.8-32.2,31.2-32.2
		S179.5,51.2,179.5,71.3z M136.5,71.5v66.4c0,9.5,4.1,14.6,11.8,14.6c7.7,0,11.8-5.2,11.8-14.6V71.5c0-9.5-4.1-14.6-11.8-14.6
		C140.6,57,136.5,62,136.5,71.5z"/>
	<path class="st0" d="M242.2,168.7l-25.3-84.8h-0.3v84.8h-18.2V40.9h21.5l22.8,76.2h0.3V40.9h18.3v127.8H242.2z"/>
	<path class="st0" d="M313.5,59.2v109.6h-19.4V59.2h-20.6V40.9h60.7V59h-20.7V59.2z"/>
	<path class="st0" d="M406.3,71.3v66.9c0,20.1-11.8,32.2-31.2,32.2s-31.2-12.3-31.2-32.2V71.3c0-20.1,11.8-32.2,31.2-32.2
		S406.3,51.2,406.3,71.3z M363.2,71.5v66.4c0,9.5,4.1,14.6,11.8,14.6s11.8-5.2,11.8-14.6V71.5c0-9.5-4.1-14.6-11.8-14.6
		C367.4,57,363.2,62,363.2,71.5z"/>
</g>
<g>
	<path d="M68.4,207.4v2.2H46.1v35.1h26.6v2.2h-29V171h29v2.2H46.1v34h22.3V207.4z"/>
	<path d="M81.1,247.1v-75.9h2.4v73.7h25.4v2.2H81.1z"/>
	<path d="M141.9,207.4v2.2h-22.3v35.1h26.6v2.2h-29V171h29v2.2h-26.6v34h22.3V207.4z"/>
	<path d="M169.3,247.1v-73.7h-16.6v-2.2h35.5v2.2h-16.6v73.7H169.3z"/>
	<path d="M210.3,171.2c11.2,0,15.7,6.7,15.7,17v6.8c0,9.3-3.7,14.3-12,16c8.4,1.3,12,6.8,12,15.2v12c0,3,0.3,6.7,2.1,9h-2.7
		c-1.5-2.4-1.8-5.8-1.8-9v-12c0-11.1-6.7-14.1-16.6-14.1h-9.3v35.1h-2.4v-75.9h14.9V171.2z M206.9,209.6c10.5,0,16.6-2.7,16.6-14.3
		v-7c0-9.2-3.6-14.9-13.3-14.9h-12.6v36.4h9.3V209.6z"/>
	<path d="M268.6,189.8v38.6c0,10.7-4.6,19.2-16.3,19.2c-11.5,0-16-8.6-16-19.2v-38.6c0-10.7,4.6-19.2,16-19.2
		C264,170.6,268.6,179.2,268.6,189.8z M238.7,189.7v38.8c0,9.3,3.6,16.9,13.6,16.9c10.2,0,13.9-7.5,13.9-16.9v-38.8
		c0-9.3-3.7-16.9-13.9-16.9C242.2,172.8,238.7,180.4,238.7,189.7z M245,165.9h-2.7l8.9-8.9h1.9l9,8.9h-2.7l-7.2-7.2L245,165.9z"/>
	<path d="M279.4,247.1h-2.2v-75.9h3.4l26.6,71v-71h2.2v75.9h-3l-27.1-72.5V247.1z"/>
	<path d="M320.5,171.2v75.9h-2.4v-75.9H320.5z"/>
	<path d="M360.9,189.8v5.9h-2.4v-5.9c0-9.2-3.4-16.9-13.5-16.9c-10.1,0-13.6,7.7-13.6,16.9v38.8c0,9.2,3.4,16.9,13.6,16.9
		c9.9,0,13.5-7.5,13.5-16.9v-8.3h2.4v8.3c0,10.5-4.3,19.2-16,19.2c-11.5,0-15.8-8.7-15.8-19.2V190c0-10.5,4.3-19.2,15.8-19.2
		C356.4,170.6,360.9,179.3,360.9,189.8z"/>
	<path d="M369.2,189.8c0-12.6,5.5-19.2,16-19.2c10.8,0,16.3,6.7,16.3,19.2v38.6c0,12.6-5.5,19.2-16.3,19.2c-10.5,0-16-6.7-16-19.2
		V189.8z M371.5,228.4c0,11.1,4.7,16.9,13.6,16.9c9.2,0,13.9-5.8,13.9-16.9v-38.8c0-11.1-4.7-16.9-13.9-16.9
		c-9,0-13.6,5.8-13.6,16.9V228.4z"/>
</g>
</svg>
